<?xml version="1.0" standalone="no"?>
<!DOCTYPE svg PUBLIC "-//W3C//DTD SVG 20010904//EN"
 "http://www.w3.org/TR/2001/REC-SVG-20010904/DTD/svg10.dtd">
<svg version="1.0" xmlns="http://www.w3.org/2000/svg"
 width="170.000000pt" height="177.000000pt" viewBox="0 0 170.000000 177.000000"
 preserveAspectRatio="xMidYMid meet">
<g transform="translate(0.000000,177.000000) scale(0.100000,-0.100000)"
fill="#ffffff" stroke="none">
<path d="M668 1741 c-31 -10 -81 -32 -110 -48 l-53 -29 -40 23 c-30 17 -55 23
-105 23 -89 0 -130 -13 -183 -60 -95 -84 -120 -212 -62 -319 34 -61 84 -106
141 -126 36 -12 38 -16 50 -72 6 -32 19 -75 27 -95 l15 -36 -53 -37 c-97 -66
-147 -156 -150 -267 -2 -43 -9 -77 -19 -93 -9 -14 -24 -53 -32 -87 -30 -118
12 -253 111 -357 148 -155 362 -183 494 -65 51 46 53 47 124 48 70 1 73 0 109
-35 169 -164 474 -78 594 168 26 52 29 69 29 158 0 90 -3 106 -27 154 -21 40
-28 67 -28 110 0 91 -24 147 -95 216 -33 33 -71 67 -84 76 -21 13 -22 18 -12
37 7 13 20 55 30 94 18 70 20 73 58 85 213 71 218 400 6 488 -53 22 -154 19
-214 -6 l-49 -22 -61 33 c-34 18 -84 39 -113 46 -74 20 -228 17 -298 -5z m335
-123 c201 -96 294 -324 217 -530 -11 -31 -30 -69 -42 -83 l-21 -28 -12 46
c-26 104 -117 184 -239 212 -177 41 -358 -50 -402 -201 -8 -30 -17 -54 -19
-54 -8 0 -47 78 -65 131 -63 185 29 407 205 496 80 42 132 53 223 49 68 -3 94
-9 155 -38z m-605 -14 c29 -8 28 -16 -9 -67 -38 -52 -57 -94 -78 -175 l-16
-63 -34 23 c-19 13 -42 39 -52 58 -66 122 51 261 189 224z m972 -9 c43 -22 82
-79 87 -128 6 -51 -27 -120 -70 -145 -32 -20 -41 -12 -52 47 -9 47 -59 152
-91 191 l-26 30 24 9 c35 15 96 13 128 -4z m-387 -507 c58 -41 84 -137 53
-197 -39 -75 -148 -129 -238 -117 -150 20 -241 145 -184 254 28 54 106 105
106 69 0 -7 13 -25 28 -40 22 -22 38 -27 76 -27 39 0 53 5 77 29 16 16 29 37
29 46 0 17 5 16 53 -17z m-487 -325 l-21 -33 -87 0 c-48 0 -99 -5 -113 -10
-26 -10 -27 -9 -20 17 12 53 57 114 102 143 l45 29 58 -56 58 -56 -22 -34z
m844 71 c33 -36 67 -110 56 -121 -2 -2 -16 1 -32 7 -15 6 -64 10 -108 9 l-80
-2 -23 36 -23 36 58 55 57 54 28 -16 c16 -9 46 -36 67 -58z m-674 -131 c52
-25 71 -28 159 -28 88 0 107 3 159 28 32 15 60 27 61 27 2 0 10 -11 19 -25 16
-24 15 -25 -12 -39 -46 -23 -117 -102 -150 -164 -35 -65 -57 -166 -49 -217 6
-34 5 -35 -27 -35 l-34 0 -4 88 c-3 68 -10 99 -32 144 -31 64 -114 161 -158
184 -27 14 -28 15 -12 39 9 14 17 25 19 25 1 0 29 -12 61 -27z m-157 -109 c60
-32 120 -93 152 -156 18 -34 23 -60 24 -120 0 -70 -2 -79 -31 -115 -46 -58
-86 -75 -164 -70 -79 5 -148 37 -208 98 -65 66 -87 119 -87 210 0 68 3 79 29
113 62 81 180 98 285 40z m838 21 c50 -21 72 -42 94 -90 43 -92 10 -206 -85
-300 -68 -68 -130 -95 -210 -95 -193 0 -253 222 -103 386 91 100 209 138 304
99z"/>
<path d="M578 1375 c-62 -35 -38 -127 35 -133 46 -4 77 25 77 71 0 57 -60 90
-112 62z"/>
<path d="M995 1378 c-29 -16 -35 -28 -35 -70 0 -44 27 -68 76 -68 33 0 74 37
74 66 0 26 -23 62 -47 73 -30 14 -43 13 -68 -1z"/>
<path d="M441 443 c-73 -38 -98 -112 -62 -185 25 -53 65 -78 123 -78 175 0
185 255 11 276 -25 3 -50 -1 -72 -13z"/>
<path d="M1085 441 c-50 -26 -75 -66 -75 -123 0 -55 16 -86 60 -116 29 -20 44
-23 89 -19 47 3 59 9 88 40 32 35 39 60 34 116 -9 93 -110 145 -196 102z"/>
</g>
</svg>
